<?xml version="1.0" encoding="utf-8"?>
<!-- Generator: Adobe Illustrator 16.0.0, SVG Export Plug-In . SVG Version: 6.00 Build 0)  -->
<!DOCTYPE svg PUBLIC "-//W3C//DTD SVG 1.1//EN" "http://www.w3.org/Graphics/SVG/1.1/DTD/svg11.dtd">
<svg version="1.1" id="Layer_1" xmlns="http://www.w3.org/2000/svg" xmlns:xlink="http://www.w3.org/1999/xlink" x="0px" y="0px"
	 width="282.025px" height="282.024px" viewBox="0 0 282.025 282.024" enable-background="new 0 0 282.025 282.024"
	 xml:space="preserve">
<circle opacity="0.6" fill="#FFF56D" cx="141.013" cy="141.012" r="140.286"/>
<path opacity="0.5" fill="#EC008C" d="M141.012,282.024C63.258,282.024,0,218.766,0,141.012C0,63.258,63.258,0,141.012,0
	c77.755,0,141.013,63.258,141.013,141.012C282.025,218.766,218.767,282.024,141.012,282.024z M141.012,40
	C85.314,40,40,85.314,40,141.012s45.314,101.012,101.012,101.012s101.013-45.313,101.013-101.012S196.71,40,141.012,40z"/>
<g opacity="0.5">
	<path fill="#EC008C" d="M178.588,141.012l44.806-58.392c-4.356-6.128-9.382-11.749-14.964-16.761h-47.327l-57.667,75.152h0
		L58.63,199.404c4.356,6.128,9.382,11.748,14.964,16.761h47.327L178.588,141.012z"/>
</g>
<g opacity="0.4">
	<path fill="#EC008C" d="M120.921,65.86H73.594c-5.582,5.013-10.607,10.633-14.964,16.761l44.805,58.391h0l57.667,75.152h47.327
		c5.582-5.013,10.607-10.633,14.964-16.761l-44.806-58.392L120.921,65.86z"/>
</g>
</svg>
