<?xml version="1.0" encoding="utf-8"?>
<!-- Generator: Adobe Illustrator 16.0.0, SVG Export Plug-In . SVG Version: 6.00 Build 0)  -->
<!DOCTYPE svg PUBLIC "-//W3C//DTD SVG 1.1//EN" "http://www.w3.org/Graphics/SVG/1.1/DTD/svg11.dtd">
<svg version="1.1" id="Layer_1" xmlns="http://www.w3.org/2000/svg" xmlns:xlink="http://www.w3.org/1999/xlink" x="0px" y="0px"
	 width="64px" height="64px" viewBox="0 0 64 64" enable-background="new 0 0 64 64" xml:space="preserve">
  <path fill="none" stroke="#EC008B" stroke-opacity="0.5" stroke-width="4" stroke-miterlimit="10" d="M58,17.49c0,2.358-2.262,4.27-5.051,4.27H10.692
    c-2.79,0-5.05-1.911-5.05-4.27l0,0c0-2.358,2.261-4.27,5.05-4.27h42.257C55.738,13.22,58,15.132,58,17.49L58,17.49z"/>
  <path fill="none" stroke="#FFF000" stroke-opacity="0.7" stroke-width="4" stroke-miterlimit="10" d="M58,31.7c0,2.358-2.262,4.27-5.051,4.27H10.692
  	c-2.79,0-5.05-1.911-5.05-4.27l0,0c0-2.358,2.261-4.27,5.05-4.27h42.257C55.738,27.431,58,29.341,58,31.7L58,31.7z"/>
  <path fill="none" stroke="#00ADEF" stroke-opacity="0.5" stroke-width="4" stroke-miterlimit="10" d="M58,45.91c0,2.357-2.262,4.27-5.051,4.27H10.692
    c-2.79,0-5.05-1.91-5.05-4.27l0,0c0-2.359,2.261-4.27,5.05-4.27h42.257C55.738,41.641,58,43.551,58,45.91L58,45.91z"/>
</svg>
